HIERARCHY
ROOT Hips
{
	OFFSET -3.958830 18.904000 13.208200
	CHANNELS 6 Xposition Yposition Zposition Zrotation Yrotation Xrotation 
	JOINT LHipJoint
	{
		OFFSET 0.000000 0.000000 0.000000
		CHANNELS 3 Zrotation Yrotation Xrotation
		JOINT LeftUpLeg
		{
			OFFSET 1.800000 -1.400000 0.085000
			CHANNELS 3 Zrotation Yrotation Xrotation
			JOINT LeftLeg
			{
				OFFSET 2.215000 -6.000000 0.000000
				CHANNELS 3 Zrotation Yrotation Xrotation
				JOINT LeftFoot
				{
					OFFSET 2.500000 -6.900000 0.000000
					CHANNELS 3 Zrotation Yrotation Xrotation
					JOINT LeftToeBase
					{
						OFFSET 0.200000 -0.500000 1.950000
						CHANNELS 3 Zrotation Yrotation Xrotation
						End Site
						{
							OFFSET 0.000000 0.000000 0.000000
						}
					}
				}
			}
		}
	}
	JOINT RHipJoint
	{
		OFFSET 0.000000 0.000000 0.000000
		CHANNELS 3 Zrotation Yrotation Xrotation
		JOINT RightUpLeg
		{
			OFFSET -1.800000 -1.400000 0.085000
			CHANNELS 3 Zrotation Yrotation Xrotation
			JOINT RightLeg
			{
				OFFSET -2.215000 -6.000000 0.000000
				CHANNELS 3 Zrotation Yrotation Xrotation
				JOINT RightFoot
				{
					OFFSET -2.500000 -6.900000 0.000000
					CHANNELS 3 Zrotation Yrotation Xrotation
					JOINT RightToeBase
					{
						OFFSET -0.200000 -0.500000 1.950000
						CHANNELS 3 Zrotation Yrotation Xrotation
						End Site
						{
							OFFSET 0.000000 0.000000 0.000000
						}
					}
				}
			}
		}
	}
	JOINT LowerBack
	{
		OFFSET 0.000000 0.000000 0.000000
		CHANNELS 3 Zrotation Yrotation Xrotation
		JOINT Spine
		{
			OFFSET -0.087000 1.940000 -0.288900
			CHANNELS 3 Zrotation Yrotation Xrotation
			JOINT Spine1
			{
				OFFSET 0.000000 1.950000 0.060000
				CHANNELS 3 Zrotation Yrotation Xrotation
				JOINT Neck
				{
					OFFSET 0.000000 0.000000 0.000000
					CHANNELS 3 Zrotation Yrotation Xrotation
					JOINT Neck1
					{
						OFFSET 0.000000 1.600000 0.340000
						CHANNELS 3 Zrotation Yrotation Xrotation
						JOINT Head
						{
							OFFSET 0.000000 1.667000 -0.240000
							CHANNELS 3 Zrotation Yrotation Xrotation
							End Site
							{
								OFFSET 0.000000 0.000000 0.000000
							}
						}
					}
				}
				JOINT LeftShoulder
				{
					OFFSET 0.000000 0.000000 0.000000
					CHANNELS 3 Zrotation Yrotation Xrotation
					JOINT LeftArm
					{
						OFFSET 2.700000 1.550000 -0.730000
						CHANNELS 3 Zrotation Yrotation Xrotation
						JOINT LeftForeArm
						{
							OFFSET 5.450000 0.000000 0.000000
							CHANNELS 3 Zrotation Yrotation Xrotation
							JOINT LeftHand
							{
								OFFSET 3.450000 0.000000 0.000000
								CHANNELS 3 Zrotation Yrotation Xrotation
								JOINT LeftHandIndex1
								{
									OFFSET 0.750000 0.000000 0.000000
									CHANNELS 3 Zrotation Yrotation Xrotation
									End Site
									{
										OFFSET 0.000000 0.000000 0.000000
									}
								}
							}
						}
					}
				}
				JOINT RightShoulder
				{
					OFFSET 0.000000 0.000000 0.000000
					CHANNELS 3 Zrotation Yrotation Xrotation
					JOINT RightArm
					{
						OFFSET -2.700000 1.550000 -0.730000
						CHANNELS 3 Zrotation Yrotation Xrotation
						JOINT RightForeArm
						{
							OFFSET -5.450000 0.000000 0.000000
							CHANNELS 3 Zrotation Yrotation Xrotation
							JOINT RightHand
							{
								OFFSET -3.450000 0.000000 0.000000
								CHANNELS 3 Zrotation Yrotation Xrotation
								JOINT RightHandIndex1
								{
									OFFSET -0.750000 0.000000 0.000000
									CHANNELS 3 Zrotation Yrotation Xrotation
									End Site
									{
										OFFSET 0.000000 0.000000 0.000000
									}
								}
							}
						}
					}
				}
			}
		}
	}
}
MOTION
Frames: 9
Frame Time: 0.016667
0.712530 15.668550 -1.562380 0.318090 5.708049 2.245678 -15.198244 12.730024 2.803791 2.522365 -3.875423 -16.820232 -9.958347 9.118667 27.312935 -0.744879 6.562310 2.641694 0.581850 -0.133160 0.303950 18.432790 -9.895689 3.602429 -8.751912 6.324509 -38.053197 6.755006 -11.555263 46.983535 -0.718534 -7.683001 2.051809 0.266660 0.759070 0.318260 -3.827319 -1.915083 -7.465119 8.782429 -3.314888 8.733841 -7.733640 -2.062762 0.453241 2.843400 -2.525556 -3.819022 -4.154319 1.361180 22.208785 -4.126300 -0.710020 -3.711780 -33.084267 -2.918963 -1.971874 -40.738697 -4.217712 -3.253567 -15.076961 -18.695215 0.008307 -4.149767 2.970298 0.572980 0.582120 -0.519620 0.485970 27.028233 2.921361 2.774282 46.598260 -3.483704 -8.818986 14.166595 22.406339 0.051597 1.498089 -1.600680 -0.556220 0.430670 0.039810 -0.417010 
0.733250 15.643810 -1.594270 0.061776 5.424066 0.461580 -15.145326 12.777444 2.844633 2.809815 -3.998636 -16.154993 -9.858509 9.566179 29.292916 -0.624518 6.757503 2.506221 0.645630 -0.080110 0.407950 18.453347 -9.818067 3.820282 -9.634325 6.698197 -38.945513 7.219481 -12.869110 50.686618 -0.969766 -8.323465 1.824467 0.225370 0.563830 0.289670 -3.930144 -2.046670 -7.859016 10.026527 -3.844171 12.338865 -8.713055 -2.110232 -0.749427 3.101858 -2.957727 -4.469864 -5.504338 1.262129 25.682936 -3.544820 -0.821210 -6.587200 -34.188743 -4.025666 -1.707164 -39.219145 -3.876766 -3.978373 -15.570119 -20.626691 0.349621 -3.925798 2.985599 0.700080 0.410200 -0.378370 0.448790 27.367863 4.308288 3.610372 45.960750 -4.323968 -9.708254 15.102789 24.426681 0.525814 1.551676 -1.539945 -0.495090 0.379090 -0.021280 -0.452780 
0.755850 15.600630 -1.637790 -0.344403 4.897267 -2.516724 -15.104288 12.832253 2.902095 3.867278 -4.216029 -14.982555 -10.501580 10.739637 32.503322 -0.447438 7.372166 2.234044 0.680440 -0.067690 0.494210 18.467100 -9.608024 4.121197 -10.764858 7.406466 -40.374739 7.308246 -14.901436 57.070389 -1.357978 -9.450080 1.477774 0.166320 0.384310 0.244200 -3.992671 -2.365254 -8.363047 11.398821 -4.822087 17.980752 -9.903830 -2.335827 -2.746386 3.365128 -3.740698 -5.571445 -8.077526 1.852708 31.084042 -2.646580 -0.927410 -10.185670 -35.828014 -5.623515 -1.290407 -36.705128 -2.920667 -5.142894 -16.711037 -24.264811 1.005843 -3.669607 2.979998 0.872670 0.226760 -0.234460 0.406260 28.261976 6.378527 4.990599 44.522168 -6.450648 -11.381457 17.199215 28.854588 1.508588 1.558867 -1.456730 -0.469270 0.371830 -0.053460 -0.500270 
0.779350 15.542370 -1.686260 -0.866036 4.632709 -5.207084 -15.092584 12.753360 2.890279 4.706854 -4.642318 -14.389580 -10.513866 11.827541 36.350088 -0.284381 8.077434 1.959129 0.704860 -0.053670 0.549410 18.509017 -9.282021 4.462482 -12.052542 8.148416 -43.125003 6.905253 -17.314432 64.666763 -1.789622 -10.846252 1.078026 0.140370 0.283850 0.210060 -4.049180 -2.610857 -8.699073 12.778563 -6.042966 22.953111 -11.135465 -2.804668 -4.306809 3.631138 -4.551075 -6.500304 -10.662542 2.749844 35.159453 -1.759840 -1.172510 -12.940080 -37.090335 -7.005201 -0.991463 -34.295359 -2.236827 -6.281210 -18.637921 -29.030493 2.063342 -3.484091 3.000577 0.989460 0.109450 -0.140770 0.382060 28.880003 8.157115 6.177903 42.541997 -8.317742 -12.330821 20.825084 32.237468 2.760095 1.556145 -1.416308 -0.464340 0.395660 -0.069140 -0.527040 
0.798780 15.477070 -1.732780 -1.354645 4.530173 -7.439991 -15.091283 12.574466 2.888114 5.577158 -5.239606 -14.339561 -10.671230 13.034119 40.285052 -0.112427 8.843627 1.670002 0.722750 -0.031370 0.581900 18.564726 -8.979205 4.731784 -12.936930 8.681880 -46.079253 5.611482 -19.146031 71.704430 -2.151954 -12.052634 0.751002 0.136100 0.218210 0.178570 -4.112126 -2.696099 -8.915473 13.874459 -7.250063 26.996723 -12.460417 -3.348522 -5.172475 3.888680 -4.989391 -7.213409 -12.340184 3.473692 37.729931 -0.694120 -1.434880 -14.848100 -37.840448 -8.335150 -0.738801 -31.783836 -2.057259 -7.218958 -21.294112 -34.357013 3.643008 -3.344062 3.060706 1.055530 0.031320 -0.084310 0.361960 29.065379 9.533636 7.172319 40.880741 -10.034945 -13.111517 24.604952 36.055672 4.269240 1.550637 -1.419597 -0.461970 0.415000 -0.078200 -0.540700 
0.810860 15.415030 -1.774850 -1.496712 4.777095 -9.573827 -15.098208 12.428410 2.919080 5.917335 -5.906631 -14.222649 -10.467563 13.949958 44.017049 0.034462 9.522881 1.415945 0.744330 -0.008510 0.610710 18.596306 -8.821565 4.855009 -13.392762 8.730319 -48.047573 3.707902 -19.867042 76.843982 -2.388989 -12.797913 0.560705 0.135460 0.161420 0.165340 -4.138271 -2.677755 -9.050053 14.076497 -8.205931 30.739807 -13.621352 -3.912736 -5.638332 4.196211 -4.967820 -7.743131 -12.911320 3.754848 39.512130 0.064550 -1.488810 -16.840310 -38.220921 -9.368103 -0.455363 -29.598501 -1.645575 -8.443762 -24.398259 -41.627643 5.978098 -3.223046 3.159324 1.114780 -0.025500 -0.037730 0.344220 28.847769 10.380784 7.933908 39.597827 -11.648958 -13.716061 28.638453 39.719247 6.078018 1.536389 -1.435827 -0.456780 0.420460 -0.082270 -0.559630 
0.818960 15.375700 -1.810210 -1.653021 5.147307 -11.826584 -15.091102 12.352616 2.994388 6.444404 -6.506450 -13.645984 -10.884994 14.862514 46.625467 0.169556 10.114027 1.215762 0.733240 -0.023580 0.618020 18.608437 -8.843898 4.793357 -13.091928 8.446599 -48.303570 1.366968 -19.451201 80.085516 -2.505804 -13.099950 0.491129 0.115370 0.137420 0.161030 -4.165335 -2.575509 -9.111343 14.109878 -9.162262 34.433846 -14.727944 -4.568717 -6.047194 4.521833 -4.651565 -8.366351 -12.861942 3.800793 41.223851 0.570290 -1.355760 -18.327020 -38.852722 -10.595093 0.108288 -27.355644 -0.727103 -9.950148 -27.767618 -50.154845 9.031132 -3.101620 3.278497 1.169150 -0.058790 -0.002670 0.329160 28.843817 11.289829 8.769358 38.179649 -13.565165 -14.216406 33.065678 43.336860 8.264480 1.520834 -1.446957 -0.465620 0.435260 -0.070430 -0.574040 
0.820040 15.347050 -1.837910 -2.006431 5.539484 -13.475899 -15.073345 12.298625 3.084761 7.210691 -7.094756 -13.420987 -11.442907 15.626621 48.456645 0.281524 10.565397 1.063703 0.703200 -0.050460 0.598350 18.620704 -8.932302 4.650563 -12.261834 8.023820 -47.801387 -0.425956 -18.749553 81.437586 -2.528105 -13.127379 0.493661 0.090060 0.135060 0.147960 -4.212899 -2.459323 -9.113072 14.370211 -10.209236 36.912588 -15.565649 -5.258356 -5.899293 4.727102 -4.692820 -9.102226 -13.338686 4.199831 42.087053 1.510010 -1.165650 -19.047710 -38.948568 -11.739470 0.773000 -26.209406 -0.124060 -11.427129 -30.618117 -58.955550 12.206365 -3.004954 3.397401 1.191950 -0.075970 0.004670 0.311270 28.547273 12.326054 9.616852 37.079765 -15.204465 -14.579638 37.687515 46.900643 10.801621 1.516975 -1.462505 -0.473340 0.446950 -0.047480 -0.576860 
0.818050 15.328800 -1.851070 -1.914011 5.570362 -14.579981 -15.038155 12.276983 3.158761 7.519270 -7.350575 -12.854625 -12.168582 16.152803 49.045951 0.358749 10.788296 0.992435 0.695300 -0.054710 0.583660 18.636242 -9.126765 4.453847 -11.327752 7.597699 -46.520432 -2.035213 -17.451180 81.327490 -2.486096 -12.900218 0.555405 0.076530 0.132000 0.147600 -4.290634 -2.233895 -9.063359 14.325631 -10.839574 38.376146 -16.422404 -5.786694 -5.348308 4.790642 -4.794872 -9.755629 -13.745740 4.627127 42.369528 2.543790 -0.914250 -19.624980 -38.523098 -12.521847 1.389703 -25.696554 0.176569 -12.356364 -35.209935 -66.730484 16.556254 -2.919121 3.532311 1.204830 -0.090440 0.015000 0.310590 28.009059 13.028423 10.247675 36.483975 -16.356861 -14.750638 43.043065 49.801825 13.671044 1.529867 -1.492843 -0.467920 0.444870 -0.041680 -0.571940 
